<svg width="24" height="24" viewBox="0 0 24 24" fill="none" xmlns="http://www.w3.org/2000/svg">
<path d="M12 0C9.62663 0 7.30655 0.703788 5.33316 2.02236C3.35977 3.34094 1.8217 5.21508 0.913451 7.4078C0.00519977 9.60051 -0.232441 12.0133 0.230582 14.3411C0.693604 16.6689 1.83649 18.807 3.51472 20.4853C5.19295 22.1635 7.33115 23.3064 9.65892 23.7694C11.9867 24.2324 14.3995 23.9948 16.5922 23.0866C18.7849 22.1783 20.6591 20.6402 21.9776 18.6668C23.2962 16.6934 24 14.3734 24 12C24 8.8174 22.7357 5.76515 20.4853 3.51472C18.2348 1.26428 15.1826 0 12 0ZM20.168 20.1671C18.1421 22.1877 15.4365 23.3818 12.5784 23.5164C9.72027 23.6511 6.91437 22.7168 4.70748 20.8957C2.50058 19.0745 1.0508 16.4969 0.640643 13.6651C0.230485 10.8334 0.889334 7.95034 2.48881 5.57783C4.08828 3.20533 6.51378 1.51333 9.29267 0.831536C12.0716 0.149744 15.0048 0.527007 17.5207 1.88981C20.0366 3.25261 21.955 5.50332 22.902 8.20336C23.8491 10.9034 23.7569 13.8593 22.6436 16.4951C22.0639 17.8678 21.2231 19.1149 20.168 20.1671Z" fill="black"/>
<path d="M12 1.04456C9.83333 1.04438 7.71527 1.68671 5.91366 2.89032C4.11206 4.09392 2.70784 5.80475 1.87857 7.80644C1.0493 9.80812 0.832233 12.0108 1.25482 14.1358C1.67741 16.2609 2.72067 18.2129 4.25267 19.745C5.78467 21.2771 7.73661 22.3206 9.86163 22.7433C11.9866 23.1661 14.1893 22.9492 16.1911 22.1201C18.1928 21.291 19.9038 19.8869 21.1075 18.0854C22.3113 16.2839 22.9538 14.1659 22.9538 11.9992C22.9538 9.09402 21.7997 6.30779 19.7455 4.25342C17.6913 2.19904 14.9052 1.04479 12 1.04456ZM15.9387 9.73433L16.1822 10.0837H17.6649L18.1893 9.55922H19.5733L20.848 8.28455H21.872C22.0128 8.66252 22.1315 9.04836 22.2275 9.44011H21.3369L20.2702 10.5068H18.9467L18.1191 11.3379H15.3431L13.8649 12.7761V13.3752L13.5342 13.4419V12.5352L14.8995 11.1699V10.3459L15.9387 9.73433ZM18.7458 6.77167C18.8 6.77167 18.852 6.75013 18.8903 6.71179C18.9287 6.67344 18.9502 6.62144 18.9502 6.56722V4.06855C19.1235 4.22055 19.2924 4.37789 19.4569 4.54233C19.5164 4.60189 19.5751 4.66233 19.6347 4.72011C19.6342 4.72484 19.6342 4.7296 19.6347 4.73433V6.92722L18.4311 8.13078H17.0249C16.9707 8.13078 16.9187 8.15232 16.8803 8.19066C16.842 8.229 16.8204 8.281 16.8204 8.33522C16.8204 8.38944 16.842 8.44144 16.8803 8.47978C16.9187 8.51813 16.9707 8.53966 17.0249 8.53966H18.5973L20.0409 7.097V5.17611C20.7305 5.98613 21.2928 6.89641 21.7084 7.87567H20.6782L19.4035 9.15033H18.0204L17.496 9.67478H16.3955L16.2027 9.39744V7.81967H17.4871V4.42233L16.5324 3.46767V2.47478C17.2473 2.81496 17.9212 3.23512 18.5413 3.72722V6.56722C18.5413 6.62144 18.5629 6.67344 18.6012 6.71179C18.6395 6.75013 18.6915 6.77167 18.7458 6.77167ZM10.3858 7.61611L9.16532 6.39567V3.64811L9.6391 3.25433L10.0222 3.63655V4.87567L11.8 6.65344V11.857L11.8267 11.8294L11.9742 11.6819L12.0009 11.6552L12.1538 11.8081L12.2053 11.8597V6.65167L13.9831 4.87389V3.63655L14.3653 3.25433L14.8391 3.64811V6.39567L13.6187 7.61611V10.721L12.8329 11.5014L12.3413 11.9983L12.5484 12.2046L12.7013 12.3574L12.5484 12.5103L12.1555 12.9032L12.0124 13.0454L12.0027 13.0561L11.8498 12.9032L11.4524 12.5103L11.2995 12.3574L11.4524 12.2046L11.6587 11.9983L11.1671 11.5014L10.3858 10.721V7.61611ZM11.7955 1.46589V4.30144L11.2747 4.82055L11.9982 5.54411L12.7218 4.82055L12.2044 4.30144V1.46589C12.2044 1.46589 12.2044 1.45967 12.2044 1.45611C12.8571 1.46781 13.5073 1.54012 14.1467 1.67211V2.89256L13.5724 3.46767V4.70589L12.0009 6.27744L10.4284 4.70589V3.46767L9.85244 2.89256V1.67211C10.4921 1.54046 11.1426 1.46845 11.7955 1.457V1.46589ZM9.44444 1.76544V2.87922L8.75466 3.45344V5.99033L8.63732 5.873H7.79999C7.74577 5.873 7.69377 5.89454 7.65543 5.93288C7.61709 5.97122 7.59555 6.02322 7.59555 6.07744C7.59555 6.13167 7.61709 6.18367 7.65543 6.22201C7.69377 6.26035 7.74577 6.28189 7.79999 6.28189H8.46755L8.77688 6.59033C8.79613 6.62878 8.82732 6.65997 8.86577 6.67922L9.97332 7.78767V10.8917L11.1662 12.0837V13.2792L11.6578 13.7708V15.7841H12.3413V13.7717L12.8329 13.2801V12.0819L14.0249 10.8899V7.78589L15.1333 6.67744C15.1716 6.65793 15.2027 6.62682 15.2222 6.58855L15.5315 6.28011H16.1991C16.2533 6.28011 16.3053 6.25857 16.3437 6.22023C16.382 6.18189 16.4035 6.12989 16.4035 6.07567C16.4035 6.02144 16.382 5.96944 16.3437 5.9311C16.3053 5.89276 16.2533 5.87122 16.1991 5.87122H15.3635L15.2453 5.99033V3.45611L14.5547 2.87922V1.76544C15.0841 1.89693 15.6024 2.0696 16.1049 2.28189L16.1235 2.29078V3.63655L17.0782 4.59211V7.41255H15.7938V9.34678L14.4915 10.113V11.0019L13.1253 12.3681V13.5023C13.1249 13.5097 13.1249 13.5172 13.1253 13.5246L13.0178 13.5468L12.5795 13.985V17.617L13.392 18.4303L14.1787 19.2161H15.1911L15.7911 19.8161V20.2348C15.3724 20.2348 15.0862 20.2348 14.8889 20.2348L12.328 17.6703V16.0614H11.6711V17.6703L9.10577 20.2357C8.90933 20.2357 8.6231 20.2357 8.20355 20.2357V19.817L8.80355 19.217H9.81688L10.6027 18.4312L11.4151 17.6179V13.9832L10.9804 13.5459L10.8729 13.5237C10.8733 13.5163 10.8733 13.5088 10.8729 13.5014V12.3663L9.50755 11.0001V10.1112L8.20533 9.345V7.41255H6.9191V4.59211L7.87466 3.63655V2.29078L7.89333 2.28189C8.39604 2.06939 8.91467 1.89671 9.44444 1.76544ZM3.9591 5.17611V7.09967L5.40177 8.54233H6.9751C7.02933 8.54233 7.08133 8.52079 7.11967 8.48245C7.15801 8.44411 7.17955 8.39211 7.17955 8.33789C7.17955 8.28367 7.15801 8.23166 7.11967 8.19332C7.08133 8.15498 7.02933 8.13344 6.9751 8.13344H5.57155L4.36799 6.92989V4.737C4.36799 4.73167 4.36799 4.72722 4.36799 4.72278C4.42577 4.66233 4.48444 4.60189 4.54577 4.545C4.71022 4.38055 4.8791 4.22322 5.05244 4.07122V6.56989C5.05244 6.62411 5.07398 6.67611 5.11232 6.71445C5.15066 6.75279 5.20266 6.77433 5.25688 6.77433C5.3111 6.77433 5.3631 6.75279 5.40145 6.71445C5.43979 6.67611 5.46133 6.62411 5.46133 6.56989V3.72722C6.08131 3.23494 6.75527 2.81476 7.47021 2.47478V3.46767L6.51199 4.42233V7.81967H7.79733V9.39744L7.60355 9.67478H6.50399L5.97955 9.15033H4.59555L3.32088 7.87567H2.29066C2.70667 6.8964 3.26926 5.98613 3.9591 5.17611ZM2.12799 8.28722H3.15199L4.43022 9.55922H5.81333L6.33777 10.0837H7.81688L8.06133 9.73433L9.09955 10.3459V11.1708L10.4658 12.5361V13.4428L10.1351 13.3761V12.777L8.65421 11.3397H5.88533L5.05244 10.5068H3.73155L2.66488 9.44011H1.76355C1.86249 9.04817 1.98418 8.66233 2.12799 8.28455V8.28722ZM2.28266 16.1094C1.73291 14.8109 1.45112 13.4147 1.45422 12.0046C1.45361 11.2792 1.52747 10.5557 1.67466 9.84544H2.49333L3.55999 10.9121H4.35999L2.87821 13.0321H2.39822C2.34399 13.0321 2.29199 13.0536 2.25365 13.092C2.21531 13.1303 2.19377 13.1823 2.19377 13.2366C2.19377 13.2908 2.21531 13.3428 2.25365 13.3811C2.29199 13.4195 2.34399 13.441 2.39822 13.441H3.09688L4.85866 10.9192V10.9121H4.88355L5.71555 11.7432H7.79999L7.84888 11.7814C8.08511 11.9579 8.29467 12.1674 8.4711 12.4037C8.59484 12.5632 8.67289 12.7534 8.69688 12.9539H7.28355L6.72799 12.3992H5.53955L4.00533 13.9334H3.37333C3.3191 13.9334 3.2671 13.955 3.22876 13.9933C3.19042 14.0317 3.16888 14.0837 3.16888 14.1379C3.16888 14.1921 3.19042 14.2441 3.22876 14.2824C3.2671 14.3208 3.3191 14.3423 3.37333 14.3423H4.17333L5.70755 12.8081H6.56355L6.91377 13.1583L3.66577 16.4063H3.11999C3.06577 16.4063 3.01377 16.4279 2.97543 16.4662C2.93709 16.5046 2.91555 16.5566 2.91555 16.6108C2.91555 16.665 2.93709 16.717 2.97543 16.7553C3.01377 16.7937 3.06577 16.8152 3.11999 16.8152H3.83555L7.28355 13.3681H8.5831L8.57599 13.3761H9.85244C9.85244 13.3761 10.4204 13.7014 10.4204 14.8872C10.4204 16.6437 9.24977 17.9797 8.80177 18.4277H10.0275L9.64977 18.8054H8.63466L7.79555 19.6446V20.233H7.43999C6.45421 20.2374 5.46666 20.2472 5.45688 20.2472H5.43199C4.05276 19.1486 2.96964 17.7229 2.28088 16.0997L2.28266 16.1094ZM5.97244 20.657C7.20355 20.6463 8.76888 20.6392 9.28799 20.6499V21.3797L8.65955 22.0081C8.40177 21.9216 8.14695 21.8253 7.8951 21.7192C7.21896 21.4331 6.57457 21.0771 5.97244 20.657ZM12.2044 22.545V20.1503L12.7235 19.6312L12 18.9068L11.2747 19.6312L11.7938 20.1503V22.5423C10.8821 22.5267 9.9763 22.392 9.09955 22.1414L9.6951 21.5459V20.657L10.4747 19.8774L10.8089 20.2117V21.6703C10.8089 21.7246 10.8304 21.7766 10.8688 21.8149C10.9071 21.8532 10.9591 21.8748 11.0133 21.8748C11.0675 21.8748 11.1195 21.8532 11.1579 21.8149C11.1962 21.7766 11.2178 21.7246 11.2178 21.6703V20.0401L10.7635 19.5868L11.9982 18.3521L13.2302 19.5903L12.7769 20.0437V21.6703C12.7769 21.7246 12.7984 21.7766 12.8368 21.8149C12.8751 21.8532 12.9271 21.8748 12.9813 21.8748C13.0355 21.8748 13.0875 21.8532 13.1259 21.8149C13.1642 21.7766 13.1858 21.7246 13.1858 21.6703V20.2126L13.52 19.8783L14.2995 20.6579V21.5468L14.8951 22.1423C14.0194 22.3921 13.1149 22.5266 12.2044 22.5423V22.545ZM16.1049 21.7192C15.8524 21.8259 15.5973 21.9222 15.3395 22.0081L14.7111 21.3797V20.6499C15.2311 20.6392 16.7964 20.6499 18.0275 20.657C17.4252 21.076 16.7808 21.4311 16.1049 21.7166V21.7192ZM21.7164 16.1068C21.1872 17.3598 20.4198 18.4982 19.4569 19.4588C19.1756 19.7402 18.8788 20.0058 18.568 20.2543H18.5422C18.5324 20.2543 17.5449 20.2446 16.5591 20.2401H16.2035V19.6517L15.3635 18.8063H14.352L13.9751 18.4286H15.2009C14.752 17.9841 13.5813 16.6446 13.5813 14.8881C13.5813 13.7006 14.1493 13.377 14.1493 13.377H15.4231L15.416 13.369H16.7164L20.1635 16.8152H20.8791C20.9333 16.8152 20.9853 16.7937 21.0237 16.7553C21.062 16.717 21.0835 16.665 21.0835 16.6108C21.0835 16.5566 21.062 16.5046 21.0237 16.4662C20.9853 16.4279 20.9333 16.4063 20.8791 16.4063H20.3324L17.0889 13.1628L17.4391 12.8126H18.2898L19.8249 14.3459H20.6249C20.6517 14.3459 20.6783 14.3406 20.7031 14.3303C20.7279 14.32 20.7505 14.305 20.7694 14.286C20.7884 14.267 20.8035 14.2445 20.8138 14.2197C20.824 14.1949 20.8293 14.1683 20.8293 14.1414C20.8293 14.1146 20.824 14.088 20.8138 14.0632C20.8035 14.0384 20.7884 14.0159 20.7694 13.9969C20.7505 13.9779 20.7279 13.9628 20.7031 13.9526C20.6783 13.9423 20.6517 13.937 20.6249 13.937H19.9938L18.4595 12.4028H17.2711L16.7164 12.9574H15.304C15.3275 12.7568 15.4056 12.5665 15.5298 12.4072C15.706 12.1708 15.9156 11.9612 16.152 11.785L16.2009 11.7468H18.2853L19.1164 10.9157H19.1413C19.143 10.9179 19.1445 10.9203 19.1458 10.9228L20.9084 13.4446H21.6009C21.6551 13.4446 21.7071 13.423 21.7454 13.3847C21.7838 13.3463 21.8053 13.2943 21.8053 13.2401C21.8053 13.1859 21.7838 13.1339 21.7454 13.0955C21.7071 13.0572 21.6551 13.0357 21.6009 13.0357H21.1218L19.6391 10.9157H20.4391L21.5058 9.849H22.3244C22.4712 10.5575 22.5451 11.2792 22.5449 12.0028C22.5475 13.4117 22.2657 14.8067 21.7164 16.1041V16.1068Z" fill="black"/>
</svg>
