<svg width="30" height="30" viewBox="0 0 30 30" fill="none" xmlns="http://www.w3.org/2000/svg">
<path d="M12 4.5C11.6022 4.5 11.2206 4.65804 10.9393 4.93934C10.658 5.22064 10.5 5.60218 10.5 6V6.75C10.5 6.94891 10.421 7.13968 10.2803 7.28033C10.1397 7.42098 9.94891 7.5 9.75 7.5C9.55109 7.5 9.36032 7.42098 9.21967 7.28033C9.07902 7.13968 9 6.94891 9 6.75V6C9 5.20435 9.31607 4.44129 9.87868 3.87868C10.4413 3.31607 11.2044 3 12 3H12.75C12.9489 3 13.1397 3.07902 13.2803 3.21967C13.421 3.36032 13.5 3.55109 13.5 3.75C13.5 3.94891 13.421 4.13968 13.2803 4.28033C13.1397 4.42098 12.9489 4.5 12.75 4.5H12ZM10.5 18C10.5 18.3978 10.658 18.7794 10.9393 19.0607C11.2206 19.342 11.6022 19.5 12 19.5H12.75C12.9489 19.5 13.1397 19.579 13.2803 19.7197C13.421 19.8603 13.5 20.0511 13.5 20.25C13.5 20.4489 13.421 20.6397 13.2803 20.7803C13.1397 20.921 12.9489 21 12.75 21H12C11.2044 21 10.4413 20.6839 9.87868 20.1213C9.31607 19.5587 9 18.7956 9 18V17.25C9 17.0511 9.07902 16.8603 9.21967 16.7197C9.36032 16.579 9.55109 16.5 9.75 16.5C9.94891 16.5 10.1397 16.579 10.2803 16.7197C10.421 16.8603 10.5 17.0511 10.5 17.25V18ZM10.5 9.75C10.5 9.55109 10.421 9.36032 10.2803 9.21967C10.1397 9.07902 9.94891 9 9.75 9C9.55109 9 9.36032 9.07902 9.21967 9.21967C9.07902 9.36032 9 9.55109 9 9.75V14.25C9 14.4489 9.07902 14.6397 9.21967 14.7803C9.36032 14.921 9.55109 15 9.75 15C9.94891 15 10.1397 14.921 10.2803 14.7803C10.421 14.6397 10.5 14.4489 10.5 14.25V9.75ZM24 4.5C24.3978 4.5 24.7794 4.65804 25.0607 4.93934C25.342 5.22064 25.5 5.60218 25.5 6V6.75C25.5 6.94891 25.579 7.13968 25.7197 7.28033C25.8603 7.42098 26.0511 7.5 26.25 7.5C26.4489 7.5 26.6397 7.42098 26.7803 7.28033C26.921 7.13968 27 6.94891 27 6.75V6C27 5.20435 26.6839 4.44129 26.1213 3.87868C25.5587 3.31607 24.7956 3 24 3H23.25C23.0511 3 22.8603 3.07902 22.7197 3.21967C22.579 3.36032 22.5 3.55109 22.5 3.75C22.5 3.94891 22.579 4.13968 22.7197 4.28033C22.8603 4.42098 23.0511 4.5 23.25 4.5H24ZM24 19.5C24.3978 19.5 24.7794 19.342 25.0607 19.0607C25.342 18.7794 25.5 18.3978 25.5 18V17.25C25.5 17.0511 25.579 16.8603 25.7197 16.7197C25.8603 16.579 26.0511 16.5 26.25 16.5C26.4489 16.5 26.6397 16.579 26.7803 16.7197C26.921 16.8603 27 17.0511 27 17.25V18C27 18.7956 26.6839 19.5587 26.1213 20.1213C25.5587 20.6839 24.7956 21 24 21H23.25C23.0511 21 22.8603 20.921 22.7197 20.7803C22.579 20.6397 22.5 20.4489 22.5 20.25C22.5 20.0511 22.579 19.8603 22.7197 19.7197C22.8603 19.579 23.0511 19.5 23.25 19.5H24ZM26.25 9C26.0511 9 25.8603 9.07902 25.7197 9.21967C25.579 9.36032 25.5 9.55109 25.5 9.75V14.25C25.5 14.4489 25.579 14.6397 25.7197 14.7803C25.8603 14.921 26.0511 15 26.25 15C26.4489 15 26.6397 14.921 26.7803 14.7803C26.921 14.6397 27 14.4489 27 14.25V9.75C27 9.55109 26.921 9.36032 26.7803 9.21967C26.6397 9.07902 26.4489 9 26.25 9ZM15.75 3C15.5511 3 15.3603 3.07902 15.2197 3.21967C15.079 3.36032 15 3.55109 15 3.75C15 3.94891 15.079 4.13968 15.2197 4.28033C15.3603 4.42098 15.5511 4.5 15.75 4.5H20.25C20.4489 4.5 20.6397 4.42098 20.7803 4.28033C20.921 4.13968 21 3.94891 21 3.75C21 3.55109 20.921 3.36032 20.7803 3.21967C20.6397 3.07902 20.4489 3 20.25 3H15.75ZM15 20.25C15 20.0511 15.079 19.8603 15.2197 19.7197C15.3603 19.579 15.5511 19.5 15.75 19.5H20.25C20.4489 19.5 20.6397 19.579 20.7803 19.7197C20.921 19.8603 21 20.0511 21 20.25C21 20.4489 20.921 20.6397 20.7803 20.7803C20.6397 20.921 20.4489 21 20.25 21H15.75C15.5511 21 15.3603 20.921 15.2197 20.7803C15.079 20.6397 15 20.4489 15 20.25ZM6 9H7.5V18.75C7.5 19.7446 7.89509 20.6984 8.59835 21.4016C9.30161 22.1049 10.2554 22.5 11.25 22.5H21V24C21 24.7956 20.6839 25.5587 20.1213 26.1213C19.5587 26.6839 18.7956 27 18 27H8.25C6.85761 27 5.52226 26.4469 4.53769 25.4623C3.55312 24.4777 3 23.1424 3 21.75V12C3 11.2044 3.31607 10.4413 3.87868 9.87868C4.44129 9.31607 5.20435 9 6 9Z" fill="#E8B608"/>
</svg>
