<svg width="26" height="27" viewBox="0 0 26 27" fill="none" xmlns="http://www.w3.org/2000/svg">
<path d="M12.9998 24.3333C18.9829 24.3333 23.8332 19.483 23.8332 13.5C23.8332 7.51687 18.9829 2.66663 12.9998 2.66663C7.01675 2.66663 2.1665 7.51687 2.1665 13.5C2.1665 19.483 7.01675 24.3333 12.9998 24.3333Z" stroke="black" stroke-width="1.5"/>
<path d="M13 7V20M16.25 10.7917C16.25 9.29667 14.7951 8.08333 13 8.08333C11.2049 8.08333 9.75 9.29667 9.75 10.7917C9.75 12.2867 11.2049 13.5 13 13.5C14.7951 13.5 16.25 14.7133 16.25 16.2083C16.25 17.7033 14.7951 18.9167 13 18.9167C11.2049 18.9167 9.75 17.7033 9.75 16.2083" stroke="black" stroke-width="1.5" stroke-linecap="round"/>
</svg>
