<svg width="27" height="24" viewBox="0 0 27 24" fill="none" xmlns="http://www.w3.org/2000/svg">
<path d="M8.23946 3.60001C7.22931 3.60001 6.26052 3.97929 5.54624 4.65442C4.83195 5.32955 4.43066 6.24523 4.43066 7.20001V9.00001C4.43066 9.15914 4.49754 9.31175 4.61659 9.42427C4.73564 9.53679 4.8971 9.60001 5.06546 9.60001C5.23382 9.60001 5.39529 9.53679 5.51434 9.42427C5.63338 9.31175 5.70026 9.15914 5.70026 9.00001V7.20001C5.70026 6.56349 5.96779 5.95304 6.44398 5.50295C6.92017 5.05286 7.56603 4.80001 8.23946 4.80001H10.1439C10.3122 4.80001 10.4737 4.73679 10.5927 4.62427C10.7118 4.51175 10.7787 4.35914 10.7787 4.20001C10.7787 4.04088 10.7118 3.88826 10.5927 3.77574C10.4737 3.66322 10.3122 3.60001 10.1439 3.60001H8.23946ZM16.4919 3.60001C16.3235 3.60001 16.162 3.66322 16.043 3.77574C15.9239 3.88826 15.8571 4.04088 15.8571 4.20001C15.8571 4.35914 15.9239 4.51175 16.043 4.62427C16.162 4.73679 16.3235 4.80001 16.4919 4.80001H18.3963C19.0697 4.80001 19.7156 5.05286 20.1917 5.50295C20.6679 5.95304 20.9355 6.56349 20.9355 7.20001V9.00001C20.9355 9.15914 21.0023 9.31175 21.1214 9.42427C21.2404 9.53679 21.4019 9.60001 21.5703 9.60001C21.7386 9.60001 21.9001 9.53679 22.0191 9.42427C22.1382 9.31175 22.2051 9.15914 22.2051 9.00001V7.20001C22.2051 6.24523 21.8038 5.32955 21.0895 4.65442C20.3752 3.97929 19.4064 3.60001 18.3963 3.60001H16.4919ZM5.70026 15C5.70026 14.8409 5.63338 14.6883 5.51434 14.5757C5.39529 14.4632 5.23382 14.4 5.06546 14.4C4.8971 14.4 4.73564 14.4632 4.61659 14.5757C4.49754 14.6883 4.43066 14.8409 4.43066 15V16.8C4.43066 17.7548 4.83195 18.6705 5.54624 19.3456C6.26052 20.0207 7.22931 20.4 8.23946 20.4H10.1439C10.3122 20.4 10.4737 20.3368 10.5927 20.2243C10.7118 20.1117 10.7787 19.9591 10.7787 19.8C10.7787 19.6409 10.7118 19.4883 10.5927 19.3757C10.4737 19.2632 10.3122 19.2 10.1439 19.2H8.23946C7.56603 19.2 6.92017 18.9471 6.44398 18.4971C5.96779 18.047 5.70026 17.4365 5.70026 16.8V15ZM22.2051 15C22.2051 14.8409 22.1382 14.6883 22.0191 14.5757C21.9001 14.4632 21.7386 14.4 21.5703 14.4C21.4019 14.4 21.2404 14.4632 21.1214 14.5757C21.0023 14.6883 20.9355 14.8409 20.9355 15V16.8C20.9355 17.4365 20.6679 18.047 20.1917 18.4971C19.7156 18.9471 19.0697 19.2 18.3963 19.2H16.4919C16.3235 19.2 16.162 19.2632 16.043 19.3757C15.9239 19.4883 15.8571 19.6409 15.8571 19.8C15.8571 19.9591 15.9239 20.1117 16.043 20.2243C16.162 20.3368 16.3235 20.4 16.4919 20.4H18.3963C19.4064 20.4 20.3752 20.0207 21.0895 19.3456C21.8038 18.6705 22.2051 17.7548 22.2051 16.8V15ZM8.87426 11.4C8.7059 11.4 8.54444 11.4632 8.42539 11.5757C8.30634 11.6883 8.23946 11.8409 8.23946 12C8.23946 12.1591 8.30634 12.3117 8.42539 12.4243C8.54444 12.5368 8.7059 12.6 8.87426 12.6H17.7615C17.9298 12.6 18.0913 12.5368 18.2103 12.4243C18.3294 12.3117 18.3963 12.1591 18.3963 12C18.3963 11.8409 18.3294 11.6883 18.2103 11.5757C18.0913 11.4632 17.9298 11.4 17.7615 11.4H8.87426Z" fill="white"/>
</svg>
