<svg width="32" height="32" viewBox="0 0 32 32" fill="none" xmlns="http://www.w3.org/2000/svg">
<g clip-path="url(#clip0_20_1851)">
<path d="M3 4C2.20435 4 1.44129 4.31607 0.87868 4.87868C0.31607 5.44129 0 6.20435 0 7L0 11H12C12.2652 11 12.5196 11.1054 12.7071 11.2929C12.8946 11.4804 13 11.7348 13 12C13 12.506 13.16 13.288 13.612 13.916C14.026 14.492 14.726 15 16 15C17.274 15 17.974 14.492 18.388 13.916C18.84 13.288 19 12.506 19 12C19 11.7348 19.1054 11.4804 19.2929 11.2929C19.4804 11.1054 19.7348 11 20 11H32V7C32 6.20435 31.6839 5.44129 31.1213 4.87868C30.5587 4.31607 29.7956 4 29 4H3Z" fill="#E8B608"/>
<path d="M32 13H20.898C20.7546 13.7499 20.4525 14.4604 20.012 15.084C19.226 16.176 17.926 17 16 17C14.074 17 12.774 16.176 11.988 15.084C11.5476 14.4604 11.2455 13.7499 11.102 13H0V25C0 25.7956 0.31607 26.5587 0.87868 27.1213C1.44129 27.6839 2.20435 28 3 28H29C29.7956 28 30.5587 27.6839 31.1213 27.1213C31.6839 26.5587 32 25.7956 32 25V13Z" fill="#E8B608"/>
</g>
<defs>
<clipPath id="clip0_20_1851">
<rect width="32" height="32" fill="white"/>
</clipPath>
</defs>
</svg>
