<svg width="25" height="24" viewBox="0 0 25 24" fill="none" xmlns="http://www.w3.org/2000/svg">
<path d="M18.4637 19.4143L18.4635 19.4156C16.6491 20.4567 14.593 21.003 12.5011 21L12.4988 21C10.4069 21.0033 8.3508 20.4569 6.53646 19.4156C6.38727 18.0519 6.70698 16.6781 7.44294 15.5204L7.48078 15.4608C8.01956 14.638 8.75274 13.9601 9.61595 13.4872C10.4999 13.003 11.4917 12.7494 12.4996 12.75L12.5007 12.75C13.3449 12.7492 14.1797 12.9268 14.9506 13.271C15.7214 13.6152 16.4109 14.1183 16.9738 14.7475C17.5367 15.3766 17.9604 16.1175 18.2172 16.9217C18.4739 17.726 18.5579 18.5753 18.4637 19.4143ZM9.5 6.75C9.5 5.95435 9.81607 5.19129 10.3787 4.62868C10.9413 4.06607 11.7044 3.75 12.5 3.75C13.2956 3.75 14.0587 4.06607 14.6213 4.62868C15.1839 5.19129 15.5 5.95435 15.5 6.75C15.5 7.54565 15.1839 8.30871 14.6213 8.87132C14.0587 9.43393 13.2956 9.75 12.5 9.75C11.7044 9.75 10.9413 9.43393 10.3787 8.87132C9.81607 8.30871 9.5 7.54565 9.5 6.75ZM17 9.75C17 9.15326 17.2371 8.58097 17.659 8.15901C18.081 7.73705 18.6533 7.5 19.25 7.5C19.8467 7.5 20.419 7.73705 20.841 8.15901C21.2629 8.58097 21.5 9.15326 21.5 9.75C21.5 10.3467 21.2629 10.919 20.841 11.341C20.419 11.7629 19.8467 12 19.25 12C18.6533 12 18.081 11.7629 17.659 11.341C17.2371 10.919 17 10.3467 17 9.75ZM3.5 9.75C3.5 9.15326 3.73705 8.58097 4.15901 8.15901C4.58097 7.73705 5.15326 7.5 5.75 7.5C6.34674 7.5 6.91903 7.73705 7.34099 8.15901C7.76295 8.58097 8 9.15326 8 9.75C8 10.3467 7.76295 10.919 7.34099 11.341C6.91903 11.7629 6.34674 12 5.75 12C5.15326 12 4.58097 11.7629 4.15901 11.341C3.73705 10.919 3.5 10.3467 3.5 9.75Z" stroke="white" stroke-width="1.5"/>
<path d="M4.11415 15.4854C3.74463 16.436 3.5379 17.4445 3.50485 18.4679C3.25345 18.4034 3.00484 18.3279 2.75974 18.2417L2.75966 18.2408C2.75964 18.2405 2.75962 18.2402 2.7596 18.24C2.72741 17.8386 2.77635 17.4349 2.90351 17.0528C3.03075 16.6705 3.2337 16.3177 3.50024 16.0156C3.68033 15.8114 3.88696 15.6332 4.11415 15.4854ZM22.0967 17.0528C22.2238 17.4348 22.2727 17.8385 22.2406 18.2398C22.2406 18.2401 22.2405 18.2404 22.2405 18.2406C21.9963 18.3268 21.7478 18.4026 21.4953 18.4676C21.4622 17.4443 21.2555 16.4359 20.886 15.4854C21.1132 15.6332 21.3198 15.8114 21.4999 16.0156C21.7665 16.3177 21.9694 16.6705 22.0967 17.0528Z" stroke="white" stroke-width="1.5"/>
</svg>
